<?xml version="1.0" encoding="utf-8"?>
<!-- Generator: Adobe Illustrator 24.3.0, SVG Export Plug-In . SVG Version: 6.00 Build 0)  -->
<svg version="1.1" id="Large_1_" xmlns="http://www.w3.org/2000/svg" xmlns:xlink="http://www.w3.org/1999/xlink" x="0px" y="0px"
	 viewBox="0 0 321.4 91.9" style="enable-background:new 0 0 321.4 91.9;" xml:space="preserve">
<style type="text/css">
	.st0{fill:url(#SVGID_1_);}
	.st1{fill:url(#SVGID_2_);}
	.st2{fill:url(#SVGID_3_);}
	.st3{fill:url(#SVGID_4_);}
	.st4{fill:url(#SVGID_5_);}
	.st5{fill:url(#SVGID_6_);}
	.st6{fill:url(#SVGID_7_);}
	.st7{fill:url(#SVGID_8_);}
	.st8{fill:url(#SVGID_9_);}
</style>
<g id="Shape_13_xA0_Image_1_">
</g>
<g id="Shape_13_copy_xA0_Image_1_">
</g>
<g id="SL_ZZER_xA0_Image_1_">
</g>
<g id="A_xA0_Image_1_">
</g>
<g>
	<g>
		<linearGradient id="SVGID_1_" gradientUnits="userSpaceOnUse" x1="53.4461" y1="84.3202" x2="53.4461" y2="-9.094947e-13">
			<stop  offset="0" style="stop-color:#989898"/>
			<stop  offset="0.5" style="stop-color:#D2D2D2"/>
			<stop  offset="1" style="stop-color:#989898"/>
		</linearGradient>
		<path class="st0" d="M40.3,0c1.8,0.4,3,1.6,4.3,2.8c4.5,4.7,9.1,9.3,13.6,13.9c4.1,4.2,8.3,8.5,12.4,12.7c1.5,1.5,2.9,3,4.4,4.5
			c0.6,0.6,0.8,1.3,1.1,2.1c1.6,4.4,1.8,9,1,13.6c-0.9,5.3-1.9,10.6-2.9,15.8c-0.1,0.7,0,1.2,0.4,1.7c2.7,3.7,5.4,7.4,8.1,11.1
			c1.4,1.9,2.7,3.7,4.1,5.6c0.1,0.1,0.3,0.3,0.2,0.5c-0.3-0.1-0.4-0.3-0.6-0.5c-5.7-5.7-11.4-11.4-17.1-17.1
			C57.2,54.8,45.3,42.9,33.3,31c-0.8-0.8-0.8-0.8,0.1-1.5c1.3-1,2.7-1.9,4.3-2.4c3-0.9,5.6-0.3,7.8,1.9c3,2.9,6,5.9,9,8.9
			c0.7,0.7,0.7,0.7,1.4,0.1c1.1-1,2.3-2,3.4-3c1.2-1,1.4-2.4,0.6-3.7c-0.3-0.5-0.7-0.8-1-1.2c-5.6-5.6-11.2-11.2-16.8-16.7
			c-1.1-1.1-2.4-1.3-3.9-0.7c-1.1,0.5-1.9,1.5-2.7,2.2c-1.6,1.4-3.1,2.9-4.6,4.3c-0.2,0.2-0.5,0.4-0.8,0.5c-3.5,1-6.8,0.8-9.7-1.6
			c-0.6-0.5-0.6-0.5-0.1-1.1c4-4.1,8.1-8.2,12.1-12.3c0.7-0.7,1.5-1.5,2.1-2.2c1-1.2,2.2-2,3.8-2.4C39.1,0,39.7,0,40.3,0z"/>
	</g>
	<g>
		<linearGradient id="SVGID_2_" gradientUnits="userSpaceOnUse" x1="33.7615" y1="91.9372" x2="33.7615" y2="6.9944">
			<stop  offset="0" style="stop-color:#080808"/>
			<stop  offset="0.5" style="stop-color:#4E4E4E"/>
			<stop  offset="1" style="stop-color:#000000"/>
		</linearGradient>
		<path class="st1" d="M67.5,74.5c-1.7,1.7-3.4,3.3-5,5c-3.5,3.5-6.9,7.1-10.4,10.6c-2.4,2.4-6,2.4-8.3-0.1
			c-4.5-4.6-8.9-9.2-13.4-13.7c-4.5-4.6-9-9.1-13.4-13.7c-1.5-1.5-3-3-4.5-4.6c-0.5-0.5-0.7-1.1-1-1.7c-1.4-3.4-1.9-7-1.6-10.7
			c0.4-4.6,1.5-9,2.2-13.6c0.3-2,0.7-4,1.1-5.9c0.1-0.6-0.1-1-0.4-1.5c-4-5.5-8-11-12-16.6C0.5,7.8,0.1,7.5,0,7c0,0,0.1,0,0.1,0
			c0.2,0.2,0.4,0.5,0.6,0.7C11.9,18.8,23,29.9,34.1,40.9c6.7,6.7,13.4,13.4,20.1,20c0.7,0.7,0.7,0.7-0.1,1.4
			c-1.9,1.5-3.9,2.6-6.3,2.8c-2.1,0.2-4-0.5-5.5-1.9c-3.2-3-6.3-6-9.4-9.1c-0.7-0.7-0.7-0.7-1.5-0.1c-1.2,1-2.3,2-3.5,3
			c-0.9,0.8-1.2,1.9-0.7,3c0.3,0.6,0.7,1.1,1.1,1.5c5.7,5.7,11.5,11.5,17.2,17.2c0.9,0.9,2.5,1,3.9,0.3c0.5-0.3,1-0.7,1.4-1.1
			c1.9-1.7,3.7-3.5,5.6-5.3c0.2-0.2,0.4-0.4,0.7-0.5c3.6-1.1,7-0.9,10.1,1.7c0.1,0.1,0.3,0.2,0.4,0.3C67.5,74.4,67.5,74.5,67.5,74.5
			z"/>
	</g>
	<linearGradient id="SVGID_3_" gradientUnits="userSpaceOnUse" x1="108.4341" y1="63.6933" x2="108.4341" y2="26.7231">
		<stop  offset="0" style="stop-color:#080808"/>
		<stop  offset="0.5" style="stop-color:#4E4E4E"/>
		<stop  offset="1" style="stop-color:#000000"/>
	</linearGradient>
	<path class="st2" d="M93.7,55.8l18.8-0.1l0.1-6.7H99c-2.9,0-4.7-1.2-5.3-3.7c0-0.6,0-1.3,0-2c0-0.7,0-1.4,0-2h-0.1V31
		c0.3-1.5,0.9-2.6,1.8-3.3c0.9-0.7,2-1,3.5-1h24.1c-0.7,1.9-1.2,3.5-1.7,4.8c-0.5,1.3-0.9,2.3-1.2,3.2h-3l-12.9,0.1v6.6l13.6-0.1
		c1.5,0,2.6,0.3,3.5,1c0.9,0.7,1.5,1.8,1.8,3.3c0,0.1,0,0.2,0,0.3c0,0.1,0,0.2,0,0.3h0.1v13.8c-0.6,2.5-2.3,3.7-5.3,3.7l-7.6,0.1
		v0.1H96.6L93.7,55.8z"/>
	<linearGradient id="SVGID_4_" gradientUnits="userSpaceOnUse" x1="139.4386" y1="63.6933" x2="139.4386" y2="26.8413">
		<stop  offset="0" style="stop-color:#080808"/>
		<stop  offset="0.5" style="stop-color:#4E4E4E"/>
		<stop  offset="1" style="stop-color:#000000"/>
	</linearGradient>
	<path class="st3" d="M134.9,55.8h16.3l2.9,7.9h-29.2V26.8h10L134.9,55.8z"/>
	<linearGradient id="SVGID_5_" gradientUnits="userSpaceOnUse" x1="213.5275" y1="63.6933" x2="213.5275" y2="26.5458">
		<stop  offset="0" style="stop-color:#080808"/>
		<stop  offset="0.5" style="stop-color:#4E4E4E"/>
		<stop  offset="1" style="stop-color:#000000"/>
	</linearGradient>
	<path class="st4" d="M199,26.7h19.3l0.1-0.1h9.9l-0.1,0.1l-15.5,29.1h12.5l2.9,7.9h-29.3l0.1-0.1l15.3-29h-12.2L199,26.7z"/>
	<linearGradient id="SVGID_6_" gradientUnits="userSpaceOnUse" x1="244.7099" y1="63.6933" x2="244.7099" y2="26.5458">
		<stop  offset="0" style="stop-color:#080808"/>
		<stop  offset="0.5" style="stop-color:#4E4E4E"/>
		<stop  offset="1" style="stop-color:#000000"/>
	</linearGradient>
	<path class="st5" d="M230.2,26.7h19.3l0.1-0.1h9.9l-0.1,0.1l-15.5,29.1h12.5l2.9,7.9h-29.3l0.1-0.1l15.3-29h-12.2L230.2,26.7z"/>
	<linearGradient id="SVGID_7_" gradientUnits="userSpaceOnUse" x1="275.7445" y1="63.6933" x2="275.7445" y2="26.8413">
		<stop  offset="0" style="stop-color:#080808"/>
		<stop  offset="0.5" style="stop-color:#4E4E4E"/>
		<stop  offset="1" style="stop-color:#000000"/>
	</linearGradient>
	<path class="st6" d="M261.1,26.8h29.2l-2.9,7.9h-16.3v6.7h16.3v7.7h-16.3v6.5l19.2-0.1l-2.8,8h-26.4V26.8z"/>
	<linearGradient id="SVGID_8_" gradientUnits="userSpaceOnUse" x1="306.7201" y1="63.6933" x2="306.7201" y2="26.6049">
		<stop  offset="0" style="stop-color:#080808"/>
		<stop  offset="0.5" style="stop-color:#4E4E4E"/>
		<stop  offset="1" style="stop-color:#000000"/>
	</linearGradient>
	<path class="st7" d="M302.1,63.6h-10V45.8l-0.1-0.1l0.1-0.1v-19l24.1-0.1c1.5,0,2.6,0.3,3.5,1c0.9,0.7,1.5,1.8,1.8,3.3
		c0,2.5,0,4.5,0,6c0,1.5,0,2.6,0,3.5c0,0.8,0,1.4,0,1.8c0,0.4,0,0.7,0,1c-0.3,1.3-0.7,2.3-1.4,3c-0.7,0.7-1.5,1.1-2.6,1.3v0.2h-3.8
		l7.7,16.1H311l-7.5-16v-6.3h7.3v-6.9h-9.1L302.1,63.6z"/>
	<g>
		<linearGradient id="SVGID_9_" gradientUnits="userSpaceOnUse" x1="175.5277" y1="63.6933" x2="175.5277" y2="26.6049">
			<stop  offset="0" style="stop-color:#989898"/>
			<stop  offset="0.5" style="stop-color:#D2D2D2"/>
			<stop  offset="1" style="stop-color:#989898"/>
		</linearGradient>
		<path class="st8" d="M157.1,63.7l13.5-37.1h10.7L194,63.7h-20.8v-7.9h8.1l-5.4-16.7l-8.8,24.5H157.1z"/>
	</g>
</g>
</svg>
