<svg id="Layer_1" data-name="Layer 1" xmlns="http://www.w3.org/2000/svg" xmlns:xlink="http://www.w3.org/1999/xlink" viewBox="0 0 2363.57 2500"><defs><style>.cls-1{fill:url(#linear-gradient);}.cls-2{fill:url(#linear-gradient-2);}</style><linearGradient id="linear-gradient" x1="1453.33" y1="2292.88" x2="1453.33" gradientUnits="userSpaceOnUse"><stop offset="0" stop-color="#989898"/><stop offset="0.5" stop-color="#d2d2d2"/><stop offset="1" stop-color="#989898"/></linearGradient><linearGradient id="linear-gradient-2" x1="918.06" y1="2500" x2="918.06" y2="190.19" gradientUnits="userSpaceOnUse"><stop offset="0" stop-color="#080808"/><stop offset="0.5" stop-color="#4e4e4e"/><stop offset="1"/></linearGradient></defs><path class="cls-1" d="M1096.17,0c48.42,11.36,82.91,42.63,116.46,77.34,122.61,126.85,246.48,252.48,369.89,378.54q169.15,172.79,338.35,345.55,59.34,60.65,118.38,121.6c15.28,15.73,22.47,36,29.82,55.92,44.42,120.29,48.7,243.62,26.23,368.6q-38.73,215.52-79.15,430.72c-3.5,18.53-.25,32.29,10.65,47.14q110.72,150.79,220.29,302.42,55.27,76,110.41,152.15c2.63,3.64,7,6.81,5.88,12.9-7.91-1.79-11.6-8.54-16.48-13.41q-233.24-232.72-466.27-465.64-487.2-486-974.57-971.77c-21.77-21.71-21.66-22.25,1.84-41,35.49-28.29,73.59-51.81,117.45-64.89,80.53-24,152.11-7.33,212.35,50.69,82.8,79.75,164.1,161.07,246,241.76,18.77,18.48,18.51,18.34,37.61,1.6,31.1-27.23,62.09-54.59,93.82-81.07s38.36-66,15.4-101c-8-12.25-17.86-23-28.24-33.36q-228-227.64-455.79-455.47c-30-30-66.18-35.93-105-17.84-30.08,14-50.65,39.61-74.46,61-42.48,38.23-83.55,78-125.08,117.32-6.31,6-13.06,10.92-21.45,13.32C725.7,560.25,636.39,553.63,556.38,490c-17.3-13.76-17.44-14.83-1.94-30.53Q719.2,292.54,884,125.63C903.6,105.71,923.42,85.9,942,65c28.2-31.79,61.17-55.32,103.1-65Z"/><path class="cls-2" d="M1836.12,2027.05c-45.57,45.6-91.4,91-136.65,136.87-94.36,95.76-188.22,192-282.64,287.69-64.36,65.24-162,64.28-226.27-1.47q-182.37-186.67-364.81-373.27t-365.28-372.8c-40.44-41.28-80.52-82.9-121.25-123.9-12.87-13-20.37-28.59-27-45-38-93.58-52.23-191-43.61-291.3,10.7-124.4,39.49-246,60.75-368.69q14-80.85,30.81-161.2c3.45-16.49-2.75-27.67-11.61-39.83Q184.62,449.27,21.21,224C13.42,213.24,3.81,203.49,0,190.19H3.65c5.75,6.26,11.26,12.75,17.27,18.75q452.56,452.15,905.24,904.18,273.23,272.69,547,544.8c20.1,20,20.18,20.21-2.25,38.3-50.57,40.79-105.53,71.87-172.1,76.81-57.64,4.28-108.78-12.77-150.74-51.77-86.9-80.75-171.1-164.34-255-248.17-19.57-19.54-19.48-19.37-39.79-1.66q-47.44,41.35-95.21,82.36c-24.79,21.29-32,52.79-18.48,82.64,7.13,15.73,17.73,29,29.88,41.1q233.64,233.57,467.22,467.18c25.36,25.34,68.06,28.46,104.75,7.84,14.42-8.11,26.7-19.07,38.67-30.35q75.67-71.35,151.24-142.83c5.79-5.47,11.64-10.58,19.53-13,98.51-29.88,191-23.24,273.3,45,3.72,3.09,8,5.54,12,8.29Z"/></svg>